<mxfile host="app.diagrams.net" modified="2023-11-20T08:12:18.388Z" agent="Mozilla/5.0 (Windows NT 10.0; Win64; x64) AppleWebKit/537.36 (KHTML, like Gecko) Chrome/95.0.4638.69 Safari/537.36" etag="X7M7DXGHw60FlE__fATF" version="22.1.3" type="github">
  <diagram name="第 1 页" id="6lUMC7tMVDHEjYKcJqQm">
    <mxGraphModel dx="1435" dy="840" grid="0" gridSize="10" guides="1" tooltips="1" connect="1" arrows="1" fold="1" page="1" pageScale="1" pageWidth="827" pageHeight="1169" math="0" shadow="0">
      <root>
        <mxCell id="0" />
        <mxCell id="1" parent="0" />
        <mxCell id="fsPAthALO0pmOHw_S46_-20" style="edgeStyle=orthogonalEdgeStyle;rounded=0;orthogonalLoop=1;jettySize=auto;html=1;exitX=0.5;exitY=1;exitDx=0;exitDy=0;entryX=0.5;entryY=0;entryDx=0;entryDy=0;" parent="1" source="fsPAthALO0pmOHw_S46_-1" target="fsPAthALO0pmOHw_S46_-2" edge="1">
          <mxGeometry relative="1" as="geometry" />
        </mxCell>
        <mxCell id="fsPAthALO0pmOHw_S46_-1" value="生产订单" style="rounded=0;whiteSpace=wrap;html=1;" parent="1" vertex="1">
          <mxGeometry x="232" y="256" width="120" height="60" as="geometry" />
        </mxCell>
        <mxCell id="fsPAthALO0pmOHw_S46_-21" style="edgeStyle=orthogonalEdgeStyle;rounded=0;orthogonalLoop=1;jettySize=auto;html=1;exitX=0.5;exitY=1;exitDx=0;exitDy=0;entryX=0.5;entryY=0;entryDx=0;entryDy=0;" parent="1" source="fsPAthALO0pmOHw_S46_-2" target="fsPAthALO0pmOHw_S46_-6" edge="1">
          <mxGeometry relative="1" as="geometry" />
        </mxCell>
        <mxCell id="fsPAthALO0pmOHw_S46_-2" value="物料需求计划" style="rounded=0;whiteSpace=wrap;html=1;" parent="1" vertex="1">
          <mxGeometry x="232" y="356" width="120" height="60" as="geometry" />
        </mxCell>
        <mxCell id="fsPAthALO0pmOHw_S46_-23" style="edgeStyle=orthogonalEdgeStyle;rounded=0;orthogonalLoop=1;jettySize=auto;html=1;exitX=0.5;exitY=1;exitDx=0;exitDy=0;" parent="1" source="fsPAthALO0pmOHw_S46_-3" target="fsPAthALO0pmOHw_S46_-4" edge="1">
          <mxGeometry relative="1" as="geometry" />
        </mxCell>
        <mxCell id="fsPAthALO0pmOHw_S46_-3" value="生产工艺/工序" style="rounded=0;whiteSpace=wrap;html=1;" parent="1" vertex="1">
          <mxGeometry x="232" y="556" width="120" height="60" as="geometry" />
        </mxCell>
        <mxCell id="fsPAthALO0pmOHw_S46_-24" style="edgeStyle=orthogonalEdgeStyle;rounded=0;orthogonalLoop=1;jettySize=auto;html=1;exitX=0.5;exitY=1;exitDx=0;exitDy=0;entryX=0.5;entryY=0;entryDx=0;entryDy=0;" parent="1" source="fsPAthALO0pmOHw_S46_-4" target="fsPAthALO0pmOHw_S46_-5" edge="1">
          <mxGeometry relative="1" as="geometry" />
        </mxCell>
        <mxCell id="fsPAthALO0pmOHw_S46_-4" value="生产报工" style="rounded=0;whiteSpace=wrap;html=1;" parent="1" vertex="1">
          <mxGeometry x="232" y="656" width="120" height="60" as="geometry" />
        </mxCell>
        <mxCell id="GgTOgoO066AGWia9g1qK-2" style="edgeStyle=orthogonalEdgeStyle;rounded=0;orthogonalLoop=1;jettySize=auto;html=1;exitX=0.5;exitY=1;exitDx=0;exitDy=0;" parent="1" source="fsPAthALO0pmOHw_S46_-5" target="GgTOgoO066AGWia9g1qK-1" edge="1">
          <mxGeometry relative="1" as="geometry" />
        </mxCell>
        <mxCell id="GgTOgoO066AGWia9g1qK-12" style="edgeStyle=orthogonalEdgeStyle;rounded=0;orthogonalLoop=1;jettySize=auto;html=1;exitX=1;exitY=0.5;exitDx=0;exitDy=0;entryX=0;entryY=0.5;entryDx=0;entryDy=0;" parent="1" source="fsPAthALO0pmOHw_S46_-5" target="GgTOgoO066AGWia9g1qK-11" edge="1">
          <mxGeometry relative="1" as="geometry" />
        </mxCell>
        <mxCell id="fsPAthALO0pmOHw_S46_-5" value="生产完工" style="rounded=0;whiteSpace=wrap;html=1;" parent="1" vertex="1">
          <mxGeometry x="232" y="750" width="120" height="60" as="geometry" />
        </mxCell>
        <mxCell id="fsPAthALO0pmOHw_S46_-22" style="edgeStyle=orthogonalEdgeStyle;rounded=0;orthogonalLoop=1;jettySize=auto;html=1;exitX=0.5;exitY=1;exitDx=0;exitDy=0;" parent="1" source="fsPAthALO0pmOHw_S46_-6" target="fsPAthALO0pmOHw_S46_-3" edge="1">
          <mxGeometry relative="1" as="geometry" />
        </mxCell>
        <mxCell id="fsPAthALO0pmOHw_S46_-34" style="edgeStyle=orthogonalEdgeStyle;rounded=0;orthogonalLoop=1;jettySize=auto;html=1;exitX=1;exitY=0.5;exitDx=0;exitDy=0;entryX=0;entryY=0.5;entryDx=0;entryDy=0;" parent="1" source="fsPAthALO0pmOHw_S46_-6" target="fsPAthALO0pmOHw_S46_-12" edge="1">
          <mxGeometry relative="1" as="geometry" />
        </mxCell>
        <mxCell id="fsPAthALO0pmOHw_S46_-6" value="生产领料" style="rounded=0;whiteSpace=wrap;html=1;" parent="1" vertex="1">
          <mxGeometry x="232" y="446" width="120" height="60" as="geometry" />
        </mxCell>
        <mxCell id="fsPAthALO0pmOHw_S46_-27" style="edgeStyle=orthogonalEdgeStyle;rounded=0;orthogonalLoop=1;jettySize=auto;html=1;exitX=0.5;exitY=1;exitDx=0;exitDy=0;entryX=0.5;entryY=0;entryDx=0;entryDy=0;" parent="1" source="fsPAthALO0pmOHw_S46_-7" target="fsPAthALO0pmOHw_S46_-25" edge="1">
          <mxGeometry relative="1" as="geometry" />
        </mxCell>
        <mxCell id="fsPAthALO0pmOHw_S46_-30" value="库存不足" style="edgeLabel;html=1;align=center;verticalAlign=middle;resizable=0;points=[];" parent="fsPAthALO0pmOHw_S46_-27" vertex="1" connectable="0">
          <mxGeometry x="-0.0965" y="2" relative="1" as="geometry">
            <mxPoint as="offset" />
          </mxGeometry>
        </mxCell>
        <mxCell id="fsPAthALO0pmOHw_S46_-31" style="edgeStyle=orthogonalEdgeStyle;rounded=0;orthogonalLoop=1;jettySize=auto;html=1;exitX=0.5;exitY=0;exitDx=0;exitDy=0;entryX=0.5;entryY=0;entryDx=0;entryDy=0;" parent="1" source="fsPAthALO0pmOHw_S46_-7" target="fsPAthALO0pmOHw_S46_-12" edge="1">
          <mxGeometry relative="1" as="geometry">
            <Array as="points">
              <mxPoint x="637" y="356" />
              <mxPoint x="452" y="356" />
            </Array>
          </mxGeometry>
        </mxCell>
        <mxCell id="fsPAthALO0pmOHw_S46_-32" value="有库存" style="edgeLabel;html=1;align=center;verticalAlign=middle;resizable=0;points=[];" parent="fsPAthALO0pmOHw_S46_-31" vertex="1" connectable="0">
          <mxGeometry x="-0.7498" y="-2" relative="1" as="geometry">
            <mxPoint as="offset" />
          </mxGeometry>
        </mxCell>
        <mxCell id="fsPAthALO0pmOHw_S46_-33" value="扣减库存" style="edgeLabel;html=1;align=center;verticalAlign=middle;resizable=0;points=[];" parent="fsPAthALO0pmOHw_S46_-31" vertex="1" connectable="0">
          <mxGeometry x="0.7047" y="1" relative="1" as="geometry">
            <mxPoint as="offset" />
          </mxGeometry>
        </mxCell>
        <mxCell id="fsPAthALO0pmOHw_S46_-7" value="判断" style="rhombus;whiteSpace=wrap;html=1;fillColor=#ffe6cc;strokeColor=#d79b00;" parent="1" vertex="1">
          <mxGeometry x="597" y="436" width="80" height="80" as="geometry" />
        </mxCell>
        <mxCell id="fsPAthALO0pmOHw_S46_-15" style="edgeStyle=orthogonalEdgeStyle;rounded=0;orthogonalLoop=1;jettySize=auto;html=1;exitX=1;exitY=0.5;exitDx=0;exitDy=0;entryX=0;entryY=0.5;entryDx=0;entryDy=0;" parent="1" source="fsPAthALO0pmOHw_S46_-12" target="fsPAthALO0pmOHw_S46_-7" edge="1">
          <mxGeometry relative="1" as="geometry" />
        </mxCell>
        <mxCell id="fsPAthALO0pmOHw_S46_-12" value="物料库存" style="rounded=0;whiteSpace=wrap;html=1;fillColor=#dae8fc;strokeColor=#6c8ebf;" parent="1" vertex="1">
          <mxGeometry x="392" y="446" width="120" height="60" as="geometry" />
        </mxCell>
        <mxCell id="fsPAthALO0pmOHw_S46_-28" style="edgeStyle=orthogonalEdgeStyle;rounded=0;orthogonalLoop=1;jettySize=auto;html=1;exitX=0.5;exitY=1;exitDx=0;exitDy=0;entryX=0.5;entryY=1;entryDx=0;entryDy=0;" parent="1" source="fsPAthALO0pmOHw_S46_-25" target="fsPAthALO0pmOHw_S46_-12" edge="1">
          <mxGeometry relative="1" as="geometry">
            <Array as="points">
              <mxPoint x="637" y="656" />
              <mxPoint x="452" y="656" />
            </Array>
          </mxGeometry>
        </mxCell>
        <mxCell id="fsPAthALO0pmOHw_S46_-29" value="增加库存" style="edgeLabel;html=1;align=center;verticalAlign=middle;resizable=0;points=[];" parent="fsPAthALO0pmOHw_S46_-28" vertex="1" connectable="0">
          <mxGeometry x="0.7338" y="1" relative="1" as="geometry">
            <mxPoint as="offset" />
          </mxGeometry>
        </mxCell>
        <mxCell id="fsPAthALO0pmOHw_S46_-25" value="物料采购单" style="rounded=0;whiteSpace=wrap;html=1;" parent="1" vertex="1">
          <mxGeometry x="577" y="566" width="120" height="60" as="geometry" />
        </mxCell>
        <mxCell id="GgTOgoO066AGWia9g1qK-4" style="edgeStyle=orthogonalEdgeStyle;rounded=0;orthogonalLoop=1;jettySize=auto;html=1;exitX=1;exitY=0.5;exitDx=0;exitDy=0;entryX=0;entryY=0.5;entryDx=0;entryDy=0;" parent="1" source="GgTOgoO066AGWia9g1qK-1" target="GgTOgoO066AGWia9g1qK-3" edge="1">
          <mxGeometry relative="1" as="geometry" />
        </mxCell>
        <mxCell id="GgTOgoO066AGWia9g1qK-6" value="&lt;font color=&quot;#ff0000&quot;&gt;增加库存&lt;/font&gt;" style="edgeLabel;html=1;align=center;verticalAlign=middle;resizable=0;points=[];" parent="GgTOgoO066AGWia9g1qK-4" vertex="1" connectable="0">
          <mxGeometry x="-0.1876" y="-1" relative="1" as="geometry">
            <mxPoint as="offset" />
          </mxGeometry>
        </mxCell>
        <mxCell id="GgTOgoO066AGWia9g1qK-10" style="edgeStyle=orthogonalEdgeStyle;rounded=0;orthogonalLoop=1;jettySize=auto;html=1;exitX=0.5;exitY=1;exitDx=0;exitDy=0;entryX=0.5;entryY=0;entryDx=0;entryDy=0;" parent="1" source="GgTOgoO066AGWia9g1qK-1" target="GgTOgoO066AGWia9g1qK-5" edge="1">
          <mxGeometry relative="1" as="geometry" />
        </mxCell>
        <mxCell id="GgTOgoO066AGWia9g1qK-1" value="成品入库" style="rounded=0;whiteSpace=wrap;html=1;" parent="1" vertex="1">
          <mxGeometry x="232" y="866" width="120" height="60" as="geometry" />
        </mxCell>
        <mxCell id="GgTOgoO066AGWia9g1qK-3" value="商品库存" style="rounded=0;whiteSpace=wrap;html=1;fillColor=#d5e8d4;strokeColor=#82b366;" parent="1" vertex="1">
          <mxGeometry x="432" y="926" width="120" height="60" as="geometry" />
        </mxCell>
        <mxCell id="GgTOgoO066AGWia9g1qK-7" style="edgeStyle=orthogonalEdgeStyle;rounded=0;orthogonalLoop=1;jettySize=auto;html=1;exitX=1;exitY=0.5;exitDx=0;exitDy=0;entryX=0;entryY=0.5;entryDx=0;entryDy=0;" parent="1" source="GgTOgoO066AGWia9g1qK-5" target="GgTOgoO066AGWia9g1qK-3" edge="1">
          <mxGeometry relative="1" as="geometry" />
        </mxCell>
        <mxCell id="GgTOgoO066AGWia9g1qK-8" value="扣减库存" style="edgeLabel;html=1;align=center;verticalAlign=middle;resizable=0;points=[];" parent="GgTOgoO066AGWia9g1qK-7" vertex="1" connectable="0">
          <mxGeometry x="0.002" relative="1" as="geometry">
            <mxPoint as="offset" />
          </mxGeometry>
        </mxCell>
        <mxCell id="GgTOgoO066AGWia9g1qK-5" value="订单发货（出库）" style="rounded=0;whiteSpace=wrap;html=1;" parent="1" vertex="1">
          <mxGeometry x="232" y="976" width="120" height="60" as="geometry" />
        </mxCell>
        <mxCell id="GgTOgoO066AGWia9g1qK-11" value="生产退料" style="rounded=0;whiteSpace=wrap;html=1;" parent="1" vertex="1">
          <mxGeometry x="392" y="750" width="120" height="60" as="geometry" />
        </mxCell>
        <mxCell id="GgTOgoO066AGWia9g1qK-13" style="edgeStyle=orthogonalEdgeStyle;rounded=0;orthogonalLoop=1;jettySize=auto;html=1;exitX=0.5;exitY=0;exitDx=0;exitDy=0;entryX=0.134;entryY=1.032;entryDx=0;entryDy=0;entryPerimeter=0;" parent="1" source="GgTOgoO066AGWia9g1qK-11" target="fsPAthALO0pmOHw_S46_-12" edge="1">
          <mxGeometry relative="1" as="geometry">
            <Array as="points">
              <mxPoint x="452" y="686" />
              <mxPoint x="408" y="686" />
            </Array>
          </mxGeometry>
        </mxCell>
        <mxCell id="GgTOgoO066AGWia9g1qK-14" value="增加库存" style="edgeLabel;html=1;align=center;verticalAlign=middle;resizable=0;points=[];" parent="GgTOgoO066AGWia9g1qK-13" vertex="1" connectable="0">
          <mxGeometry x="0.3659" y="-1" relative="1" as="geometry">
            <mxPoint as="offset" />
          </mxGeometry>
        </mxCell>
        <mxCell id="6zmV8pduHyGVnTM9pSWp-2" style="edgeStyle=orthogonalEdgeStyle;rounded=0;orthogonalLoop=1;jettySize=auto;html=1;exitX=0;exitY=0.5;exitDx=0;exitDy=0;" edge="1" parent="1" source="6zmV8pduHyGVnTM9pSWp-1">
          <mxGeometry relative="1" as="geometry">
            <mxPoint x="553.9897137810203" y="955.9411764705883" as="targetPoint" />
          </mxGeometry>
        </mxCell>
        <mxCell id="6zmV8pduHyGVnTM9pSWp-3" value="增加" style="edgeLabel;html=1;align=center;verticalAlign=middle;resizable=0;points=[];" vertex="1" connectable="0" parent="6zmV8pduHyGVnTM9pSWp-2">
          <mxGeometry x="-0.0293" y="1" relative="1" as="geometry">
            <mxPoint x="1" y="-1" as="offset" />
          </mxGeometry>
        </mxCell>
        <mxCell id="6zmV8pduHyGVnTM9pSWp-1" value="订单退货" style="rounded=0;whiteSpace=wrap;html=1;" vertex="1" parent="1">
          <mxGeometry x="693" y="926" width="120" height="60" as="geometry" />
        </mxCell>
        <mxCell id="6zmV8pduHyGVnTM9pSWp-6" style="edgeStyle=orthogonalEdgeStyle;rounded=0;orthogonalLoop=1;jettySize=auto;html=1;exitX=0.5;exitY=1;exitDx=0;exitDy=0;entryX=0.5;entryY=0;entryDx=0;entryDy=0;" edge="1" parent="1" source="6zmV8pduHyGVnTM9pSWp-5" target="fsPAthALO0pmOHw_S46_-1">
          <mxGeometry relative="1" as="geometry" />
        </mxCell>
        <mxCell id="6zmV8pduHyGVnTM9pSWp-8" style="edgeStyle=orthogonalEdgeStyle;rounded=0;orthogonalLoop=1;jettySize=auto;html=1;exitX=1;exitY=0.5;exitDx=0;exitDy=0;entryX=0.5;entryY=0;entryDx=0;entryDy=0;dashed=1;dashPattern=8 8;" edge="1" parent="1" source="6zmV8pduHyGVnTM9pSWp-9" target="6zmV8pduHyGVnTM9pSWp-1">
          <mxGeometry relative="1" as="geometry" />
        </mxCell>
        <mxCell id="6zmV8pduHyGVnTM9pSWp-11" style="edgeStyle=orthogonalEdgeStyle;rounded=0;orthogonalLoop=1;jettySize=auto;html=1;exitX=1;exitY=0.5;exitDx=0;exitDy=0;dashed=1;" edge="1" parent="1" source="6zmV8pduHyGVnTM9pSWp-5">
          <mxGeometry relative="1" as="geometry">
            <mxPoint x="466.64477030436205" y="176.66666666666674" as="targetPoint" />
          </mxGeometry>
        </mxCell>
        <mxCell id="6zmV8pduHyGVnTM9pSWp-5" value="JIT母单" style="rounded=0;whiteSpace=wrap;html=1;dashed=1;" vertex="1" parent="1">
          <mxGeometry x="232" y="146" width="120" height="60" as="geometry" />
        </mxCell>
        <mxCell id="6zmV8pduHyGVnTM9pSWp-9" value="订单发货" style="rounded=0;whiteSpace=wrap;html=1;dashed=1;" vertex="1" parent="1">
          <mxGeometry x="469" y="146" width="120" height="60" as="geometry" />
        </mxCell>
      </root>
    </mxGraphModel>
  </diagram>
</mxfile>
